<svg width="14" height="14" viewBox="0 0 14 14" fill="none" xmlns="http://www.w3.org/2000/svg">
<path d="M5.25016 1.75H8.75016C10.0388 1.75 11.0835 2.79467 11.0835 4.08333V8.75" stroke="white" stroke-linecap="round"/>
<path d="M6.12549 4C5.42973 4 4.94898 4.00068 4.58252 4.04199C4.22643 4.08218 4.0398 4.15594 3.90576 4.25879C3.81922 4.32524 3.74172 4.40269 3.67529 4.48926C3.57243 4.62334 3.49867 4.80974 3.4585 5.16602C3.41719 5.53242 3.4165 6.01243 3.4165 6.70801V9.04199C3.4165 9.73757 3.41719 10.2176 3.4585 10.584C3.49867 10.9403 3.57243 11.1267 3.67529 11.2607C3.74172 11.3473 3.81922 11.4248 3.90576 11.4912C4.0398 11.5941 4.22643 11.6678 4.58252 11.708C4.94898 11.7493 5.42973 11.75 6.12549 11.75C6.82107 11.75 7.30108 11.7493 7.66748 11.708C8.02378 11.6678 8.21016 11.5941 8.34424 11.4912C8.43083 11.4248 8.50825 11.3473 8.57471 11.2607C8.67759 11.1267 8.75132 10.9403 8.7915 10.584C8.83281 10.2176 8.8335 9.73757 8.8335 9.04199V6.70801C8.8335 6.01243 8.83281 5.53242 8.7915 5.16602C8.75132 4.80971 8.67759 4.62334 8.57471 4.48926C8.50825 4.40267 8.43083 4.32525 8.34424 4.25879C8.21016 4.15591 8.02378 4.08217 7.66748 4.04199C7.30108 4.00069 6.82107 4 6.12549 4Z" stroke="white"/>
</svg>
