<svg width="54" height="54" viewBox="0 0 54 54" fill="none" xmlns="http://www.w3.org/2000/svg">
<g clip-path="url(#clip0_48_96)">
<path d="M44.064 0H9.936C4.4485 0 0 4.4485 0 9.936V44.064C0 49.5515 4.4485 54 9.936 54H44.064C49.5515 54 54 49.5515 54 44.064V9.936C54 4.4485 49.5515 0 44.064 0Z" fill="#FF4076"/>
<path d="M32.1975 13.4589C32.3588 12.7937 33.3049 12.7937 33.4662 13.4589L33.91 15.2893C33.9676 15.5267 34.1531 15.7122 34.3906 15.7698L36.2209 16.2136C36.8862 16.3749 36.8862 17.321 36.2209 17.4823L34.3906 17.9262C34.1531 17.9837 33.9676 18.1692 33.91 18.4067L33.4662 20.2371C33.3049 20.9023 32.3588 20.9023 32.1975 20.2371L31.7537 18.4067C31.6961 18.1692 31.5106 17.9837 31.2732 17.9262L29.4428 17.4823C28.7775 17.321 28.7775 16.3749 29.4428 16.2136L31.2732 15.7698C31.5106 15.7122 31.6961 15.5267 31.7537 15.2893L32.1975 13.4589Z" fill="white"/>
<path d="M10.3682 34.344H11.3282C12.1699 34.344 12.5907 34.344 12.9566 34.1681C13.3226 33.9922 13.5854 33.6636 14.1112 33.0064L16.6052 29.889L19.2782 34.344L21.9512 28.107L26.4062 37.017L32.6432 24.543L36.2072 30.78L38.8802 28.107L41.4557 31.9703C41.9048 32.6439 42.1294 32.9808 42.4573 33.1845C42.5225 33.2251 42.5903 33.2613 42.6602 33.2931C43.0117 33.453 43.4166 33.453 44.2262 33.453" stroke="white" stroke-width="3" stroke-linejoin="round"/>
<path d="M10.3682 26.865C10.3682 18.8846 10.3682 14.8944 12.8474 12.4152C15.3266 9.93603 19.3167 9.93604 27.2972 9.93604C35.2776 9.93604 39.2678 9.93603 41.747 12.4152C44.2262 14.8944 44.2262 18.8846 44.2262 26.865C44.2262 34.8455 44.2262 38.8356 41.747 41.3148C39.2678 43.794 35.2776 43.794 27.2972 43.794C19.3167 43.794 15.3266 43.794 12.8474 41.3148C10.3682 38.8356 10.3682 34.8455 10.3682 26.865Z" stroke="white" stroke-width="3" stroke-linejoin="round"/>
</g>
<defs>
<clipPath id="clip0_48_96">
<rect width="54" height="54" fill="white"/>
</clipPath>
</defs>
</svg>
